<svg width="28" height="28" viewBox="0 0 28 28" fill="none" xmlns="http://www.w3.org/2000/svg">
<path d="M22.4816 6.21822C20.9299 5.49489 19.2499 4.96989 17.4999 4.66656C17.4846 4.66607 17.4693 4.66895 17.4552 4.67499C17.4411 4.68104 17.4285 4.69011 17.4183 4.70156C17.2083 5.08656 16.9633 5.58822 16.7999 5.97322C14.9438 5.69322 13.0561 5.69322 11.1999 5.97322C11.0366 5.57656 10.7916 5.08656 10.5699 4.70156C10.5583 4.67822 10.5233 4.66656 10.4883 4.66656C8.73827 4.96989 7.06993 5.49489 5.5066 6.21822C5.49493 6.21822 5.48327 6.22989 5.4716 6.24156C2.29827 10.9899 1.42327 15.6099 1.85493 20.1832C1.85493 20.2066 1.8666 20.2299 1.88993 20.2416C3.98993 21.7816 6.00827 22.7149 8.00327 23.3332C8.03827 23.3449 8.07327 23.3332 8.08493 23.3099C8.5516 22.6682 8.9716 21.9916 9.33327 21.2799C9.3566 21.2332 9.33327 21.1866 9.2866 21.1749C8.6216 20.9182 7.9916 20.6149 7.37327 20.2649C7.3266 20.2416 7.3266 20.1716 7.3616 20.1366C7.48993 20.0432 7.61827 19.9382 7.7466 19.8449C7.76993 19.8216 7.80493 19.8216 7.82827 19.8332C11.8416 21.6649 16.1699 21.6649 20.1366 19.8332C20.1599 19.8216 20.1949 19.8216 20.2183 19.8449C20.3466 19.9499 20.4749 20.0432 20.6033 20.1482C20.6499 20.1832 20.6499 20.2532 20.5916 20.2766C19.9849 20.6382 19.3433 20.9299 18.6783 21.1866C18.6316 21.1982 18.6199 21.2566 18.6316 21.2916C19.0049 22.0032 19.4249 22.6799 19.8799 23.3216C19.9149 23.3332 19.9499 23.3449 19.9849 23.3332C21.9916 22.7149 24.0099 21.7816 26.1099 20.2416C26.1333 20.2299 26.1449 20.2066 26.1449 20.1832C26.6583 14.8982 25.2933 10.3132 22.5283 6.24156C22.5166 6.22989 22.5049 6.21822 22.4816 6.21822ZM9.93993 17.3949C8.73827 17.3949 7.73493 16.2866 7.73493 14.9216C7.73493 13.5566 8.71493 12.4482 9.93993 12.4482C11.1766 12.4482 12.1566 13.5682 12.1449 14.9216C12.1449 16.2866 11.1649 17.3949 9.93993 17.3949ZM18.0716 17.3949C16.8699 17.3949 15.8666 16.2866 15.8666 14.9216C15.8666 13.5566 16.8466 12.4482 18.0716 12.4482C19.3083 12.4482 20.2883 13.5682 20.2766 14.9216C20.2766 16.2866 19.3083 17.3949 18.0716 17.3949Z" fill="white"/>
</svg>
